<mxfile host="app.diagrams.net" modified="2023-12-12T01:42:34.096Z" agent="Mozilla/5.0 (Macintosh; Intel Mac OS X 10_15_7) AppleWebKit/537.36 (KHTML, like Gecko) Chrome/119.0.0.0 Safari/537.36" etag="nrEH2XKT9SCkfyt8K8hD" version="22.1.7" type="github">
  <diagram id="C5RBs43oDa-KdzZeNtuy" name="Page-1">
    <mxGraphModel dx="1627" dy="806" grid="1" gridSize="10" guides="1" tooltips="1" connect="1" arrows="1" fold="1" page="1" pageScale="1" pageWidth="827" pageHeight="1169" math="0" shadow="0">
      <root>
        <mxCell id="WIyWlLk6GJQsqaUBKTNV-0" />
        <mxCell id="WIyWlLk6GJQsqaUBKTNV-1" parent="WIyWlLk6GJQsqaUBKTNV-0" />
        <mxCell id="yTzZClgCE98Z5P2AFeUe-4" value="&lt;p style=&quot;margin:0px;margin-top:4px;text-align:center;&quot;&gt;&lt;b&gt;EmpresaPai&lt;/b&gt;&lt;/p&gt;&lt;hr size=&quot;1&quot;&gt;&lt;p style=&quot;margin:0px;margin-left:4px;&quot;&gt;idEmpresa: VARCHAR [PK]&lt;/p&gt;&lt;hr size=&quot;1&quot;&gt;&lt;p style=&quot;margin:0px;margin-left:4px;&quot;&gt;descricao: VARCHAR&lt;br&gt;cnpj: VARCHAR&lt;/p&gt;&lt;p style=&quot;margin:0px;margin-left:4px;&quot;&gt;telefone: VARCHAR&lt;/p&gt;&lt;p style=&quot;margin:0px;margin-left:4px;&quot;&gt;&lt;br&gt;&lt;/p&gt;" style="verticalAlign=top;align=left;overflow=fill;fontSize=12;fontFamily=Helvetica;html=1;whiteSpace=wrap;" vertex="1" parent="WIyWlLk6GJQsqaUBKTNV-1">
          <mxGeometry x="180" y="350" width="160" height="130" as="geometry" />
        </mxCell>
        <mxCell id="yTzZClgCE98Z5P2AFeUe-5" value="&lt;p style=&quot;margin:0px;margin-top:4px;text-align:center;&quot;&gt;&lt;b&gt;EmpresaFilha&lt;/b&gt;&lt;/p&gt;&lt;hr size=&quot;1&quot;&gt;&lt;p style=&quot;margin:0px;margin-left:4px;&quot;&gt;idEmpresaFilha: VARCHAR [PK]&lt;/p&gt;&lt;hr size=&quot;1&quot;&gt;&lt;p style=&quot;margin:0px;margin-left:4px;&quot;&gt;idEmpresa: VARCHAR [FK]&lt;br&gt;&lt;br&gt;descricao: VARCHAR&lt;br&gt;cnpj: VARCHAR&lt;/p&gt;&lt;p style=&quot;margin:0px;margin-left:4px;&quot;&gt;telefone: VARCHAR&lt;/p&gt;&lt;p style=&quot;margin:0px;margin-left:4px;&quot;&gt;&lt;br&gt;&lt;/p&gt;" style="verticalAlign=top;align=left;overflow=fill;fontSize=12;fontFamily=Helvetica;html=1;whiteSpace=wrap;" vertex="1" parent="WIyWlLk6GJQsqaUBKTNV-1">
          <mxGeometry x="490" y="350" width="210" height="130" as="geometry" />
        </mxCell>
        <mxCell id="yTzZClgCE98Z5P2AFeUe-7" value="" style="endArrow=open;startArrow=circlePlus;endFill=0;startFill=0;endSize=8;html=1;rounded=0;exitX=0;exitY=0.5;exitDx=0;exitDy=0;entryX=1;entryY=0.5;entryDx=0;entryDy=0;" edge="1" parent="WIyWlLk6GJQsqaUBKTNV-1" source="yTzZClgCE98Z5P2AFeUe-5" target="yTzZClgCE98Z5P2AFeUe-4">
          <mxGeometry width="160" relative="1" as="geometry">
            <mxPoint x="420" y="414.7" as="sourcePoint" />
            <mxPoint x="350" y="414.7" as="targetPoint" />
          </mxGeometry>
        </mxCell>
        <mxCell id="yTzZClgCE98Z5P2AFeUe-8" value="categoria" style="swimlane;fontStyle=1;align=center;verticalAlign=top;childLayout=stackLayout;horizontal=1;startSize=26;horizontalStack=0;resizeParent=1;resizeParentMax=0;resizeLast=0;collapsible=1;marginBottom=0;whiteSpace=wrap;html=1;" vertex="1" parent="WIyWlLk6GJQsqaUBKTNV-1">
          <mxGeometry x="180" y="550" width="210" height="86" as="geometry" />
        </mxCell>
        <mxCell id="yTzZClgCE98Z5P2AFeUe-9" value="idCategoria: VARCHAR [PK]" style="text;strokeColor=none;fillColor=none;align=left;verticalAlign=top;spacingLeft=4;spacingRight=4;overflow=hidden;rotatable=0;points=[[0,0.5],[1,0.5]];portConstraint=eastwest;whiteSpace=wrap;html=1;" vertex="1" parent="yTzZClgCE98Z5P2AFeUe-8">
          <mxGeometry y="26" width="210" height="26" as="geometry" />
        </mxCell>
        <mxCell id="yTzZClgCE98Z5P2AFeUe-10" value="" style="line;strokeWidth=1;fillColor=none;align=left;verticalAlign=middle;spacingTop=-1;spacingLeft=3;spacingRight=3;rotatable=0;labelPosition=right;points=[];portConstraint=eastwest;strokeColor=inherit;" vertex="1" parent="yTzZClgCE98Z5P2AFeUe-8">
          <mxGeometry y="52" width="210" height="8" as="geometry" />
        </mxCell>
        <mxCell id="yTzZClgCE98Z5P2AFeUe-11" value="descricao: VARCHAR" style="text;strokeColor=none;fillColor=none;align=left;verticalAlign=top;spacingLeft=4;spacingRight=4;overflow=hidden;rotatable=0;points=[[0,0.5],[1,0.5]];portConstraint=eastwest;whiteSpace=wrap;html=1;" vertex="1" parent="yTzZClgCE98Z5P2AFeUe-8">
          <mxGeometry y="60" width="210" height="26" as="geometry" />
        </mxCell>
        <mxCell id="yTzZClgCE98Z5P2AFeUe-12" value="subCategoria" style="swimlane;fontStyle=1;align=center;verticalAlign=top;childLayout=stackLayout;horizontal=1;startSize=26;horizontalStack=0;resizeParent=1;resizeParentMax=0;resizeLast=0;collapsible=1;marginBottom=0;whiteSpace=wrap;html=1;" vertex="1" parent="WIyWlLk6GJQsqaUBKTNV-1">
          <mxGeometry x="520" y="550" width="210" height="100" as="geometry" />
        </mxCell>
        <mxCell id="yTzZClgCE98Z5P2AFeUe-13" value="idSubCategoria: VARCHAR [PK]" style="text;strokeColor=none;fillColor=none;align=left;verticalAlign=top;spacingLeft=4;spacingRight=4;overflow=hidden;rotatable=0;points=[[0,0.5],[1,0.5]];portConstraint=eastwest;whiteSpace=wrap;html=1;" vertex="1" parent="yTzZClgCE98Z5P2AFeUe-12">
          <mxGeometry y="26" width="210" height="26" as="geometry" />
        </mxCell>
        <mxCell id="yTzZClgCE98Z5P2AFeUe-14" value="" style="line;strokeWidth=1;fillColor=none;align=left;verticalAlign=middle;spacingTop=-1;spacingLeft=3;spacingRight=3;rotatable=0;labelPosition=right;points=[];portConstraint=eastwest;strokeColor=inherit;" vertex="1" parent="yTzZClgCE98Z5P2AFeUe-12">
          <mxGeometry y="52" width="210" height="8" as="geometry" />
        </mxCell>
        <mxCell id="yTzZClgCE98Z5P2AFeUe-15" value="idCategoria: VARCHAR [FK]&lt;br&gt;descricao: VARCHAR" style="text;strokeColor=none;fillColor=none;align=left;verticalAlign=top;spacingLeft=4;spacingRight=4;overflow=hidden;rotatable=0;points=[[0,0.5],[1,0.5]];portConstraint=eastwest;whiteSpace=wrap;html=1;" vertex="1" parent="yTzZClgCE98Z5P2AFeUe-12">
          <mxGeometry y="60" width="210" height="40" as="geometry" />
        </mxCell>
        <mxCell id="yTzZClgCE98Z5P2AFeUe-16" value="" style="endArrow=open;startArrow=circlePlus;endFill=0;startFill=0;endSize=8;html=1;rounded=0;exitX=-0.005;exitY=0.627;exitDx=0;exitDy=0;entryX=1;entryY=0.5;entryDx=0;entryDy=0;exitPerimeter=0;" edge="1" parent="WIyWlLk6GJQsqaUBKTNV-1" source="yTzZClgCE98Z5P2AFeUe-13">
          <mxGeometry width="160" relative="1" as="geometry">
            <mxPoint x="540" y="592.62" as="sourcePoint" />
            <mxPoint x="390" y="592.62" as="targetPoint" />
          </mxGeometry>
        </mxCell>
        <mxCell id="yTzZClgCE98Z5P2AFeUe-19" style="edgeStyle=orthogonalEdgeStyle;rounded=0;orthogonalLoop=1;jettySize=auto;html=1;entryX=0.5;entryY=1;entryDx=0;entryDy=0;" edge="1" parent="WIyWlLk6GJQsqaUBKTNV-1" source="yTzZClgCE98Z5P2AFeUe-18" target="yTzZClgCE98Z5P2AFeUe-18">
          <mxGeometry relative="1" as="geometry">
            <mxPoint x="160" y="1060" as="targetPoint" />
          </mxGeometry>
        </mxCell>
        <mxCell id="yTzZClgCE98Z5P2AFeUe-18" value="&lt;p style=&quot;margin:0px;margin-top:4px;text-align:center;&quot;&gt;&lt;b&gt;EmpresaPai&lt;/b&gt;&lt;/p&gt;&lt;hr size=&quot;1&quot;&gt;&lt;p style=&quot;margin:0px;margin-left:4px;&quot;&gt;idEmpresa: VARCHAR [PK]&lt;/p&gt;&lt;hr size=&quot;1&quot;&gt;&lt;p style=&quot;margin:0px;margin-left:4px;&quot;&gt;idEmpresaPai: VARCHAR [fk]&lt;br&gt;descricao: VARCHAR&lt;br&gt;cnpj: VARCHAR&lt;/p&gt;&lt;p style=&quot;margin:0px;margin-left:4px;&quot;&gt;telefone: VARCHAR&lt;/p&gt;&lt;p style=&quot;margin:0px;margin-left:4px;&quot;&gt;&lt;br&gt;&lt;/p&gt;" style="verticalAlign=top;align=left;overflow=fill;fontSize=12;fontFamily=Helvetica;html=1;whiteSpace=wrap;" vertex="1" parent="WIyWlLk6GJQsqaUBKTNV-1">
          <mxGeometry x="205" y="850" width="185" height="130" as="geometry" />
        </mxCell>
        <mxCell id="yTzZClgCE98Z5P2AFeUe-20" style="edgeStyle=orthogonalEdgeStyle;rounded=0;orthogonalLoop=1;jettySize=auto;html=1;entryX=0.5;entryY=1;entryDx=0;entryDy=0;" edge="1" parent="WIyWlLk6GJQsqaUBKTNV-1" source="yTzZClgCE98Z5P2AFeUe-21" target="yTzZClgCE98Z5P2AFeUe-21">
          <mxGeometry relative="1" as="geometry">
            <mxPoint x="505" y="1059.96" as="targetPoint" />
          </mxGeometry>
        </mxCell>
        <mxCell id="yTzZClgCE98Z5P2AFeUe-21" value="&lt;p style=&quot;margin:0px;margin-top:4px;text-align:center;&quot;&gt;&lt;b&gt;Categoria&lt;/b&gt;&lt;/p&gt;&lt;hr size=&quot;1&quot;&gt;&lt;p style=&quot;margin:0px;margin-left:4px;&quot;&gt;idCategoria: VARCHAR [PK]&lt;/p&gt;&lt;hr size=&quot;1&quot;&gt;&lt;p style=&quot;margin:0px;margin-left:4px;&quot;&gt;subCategoria: VARCHAR [FK]&lt;br&gt;descricao: VARCHAR&lt;/p&gt;&lt;p style=&quot;margin:0px;margin-left:4px;&quot;&gt;&lt;br&gt;&lt;/p&gt;" style="verticalAlign=top;align=left;overflow=fill;fontSize=12;fontFamily=Helvetica;html=1;whiteSpace=wrap;" vertex="1" parent="WIyWlLk6GJQsqaUBKTNV-1">
          <mxGeometry x="550" y="849.96" width="185" height="130" as="geometry" />
        </mxCell>
      </root>
    </mxGraphModel>
  </diagram>
</mxfile>
